<svg xmlns="http://www.w3.org/2000/svg" xmlns:xlink="http://www.w3.org/1999/xlink" viewBox="0,0,256,256" width="100px" height="100px" fill-rule="nonzero"><g fill="none" fill-rule="nonzero" stroke="none" stroke-width="1" stroke-linecap="none" stroke-linejoin="none" stroke-miterlimit="10" stroke-dasharray="" stroke-dashoffset="0" font-family="none" font-weight="none" font-size="none" text-anchor="none" style="mix-blend-mode: normal"><g transform="scale(2.56,2.56)"><circle cx="50" cy="50" r="36.5" fill="#d2fff6" stroke="none" stroke-linecap="butt" stroke-linejoin="miter"></circle><path d="M67.63,50.175c0,0 -7.532,-5.872 -13.787,-7.277c-6.255,-1.405 -12,4.34 -4.851,9.702c7.149,5.362 7.404,6.128 7.404,6.128c0,0 -0.383,9.574 9.191,14.681" fill="none" stroke="#231f20" stroke-linecap="round" stroke-linejoin="round"></path><path d="M39.02,49.902c-0.549,1.14 -0.715,2.693 -0.178,4.805c1.34,5.266 5.989,7.055 8.362,7.723c3.511,0.989 8.298,-0.83 5.904,-6.479" fill="none" stroke="#231f20" stroke-linecap="round" stroke-linejoin="round"></path><path d="M39.992,57.388c0,0 -6.099,2.818 -2.202,9.096c1.723,2.777 5.363,4.388 9.096,4.309c4.5,-0.096 6.798,-5.362 2.872,-8.138" fill="none" stroke="#231f20" stroke-linecap="round" stroke-linejoin="round"></path><path d="M91.375,65.239c0,0 -8.97,-11.548 -20.719,-22.522" fill="none" stroke="#231f20" stroke-linecap="round" stroke-linejoin="round"></path><path d="M60.992,93.452c0,0 -10.979,-17.489 -16.723,-22.723" fill="none" stroke="#231f20" stroke-linecap="round" stroke-linejoin="round"></path><path d="M13.431,24.453c0,0 -1.861,5.704 2.623,14.53" fill="none" stroke="#231f20" stroke-linecap="round" stroke-linejoin="round"></path><path d="M9.008,25.113c0,0 -1.861,5.704 2.623,14.53" fill="none" stroke="#231f20" stroke-linecap="round" stroke-linejoin="round"></path><path d="M63.406,47.094c8.193,-3.909 13.625,-10.754 13.625,-18.546c0,-12.15 -13.208,-22 -29.5,-22c-16.292,0 -29.5,9.85 -29.5,22c0,5.823 3.039,11.114 7.992,15.049l-4.992,9.951l12.941,-5.463c3.818,1.477 8.119,2.354 12.684,2.454" fill="none" stroke="#3793ff" stroke-linecap="round" stroke-linejoin="round"></path></g></g></svg>