<svg width="8" height="8" viewBox="0 0 8 8" fill="none" xmlns="http://www.w3.org/2000/svg">
<path d="M7.06425 3.83095C7.00443 4.50533 6.75979 5.14704 6.34645 5.68002C5.93855 6.21301 5.38372 6.62099 4.75284 6.85485C4.11652 7.08327 3.43118 7.13208 2.7731 6.98524C2.11503 6.8384 1.51138 6.50664 1.03822 6.03348C0.559616 5.55488 0.227988 4.95135 0.0811446 4.29328C-0.0602596 3.63521 -0.0168887 2.94987 0.211534 2.31355C0.445394 1.68267 0.853376 1.12783 1.38636 0.719935C1.92479 0.306599 2.56105 0.0619566 3.23544 0.00213172C3.27351 -0.0033069 3.30611 0.00214234 3.33874 0.0130196C3.37681 0.0238968 3.4041 0.0402658 3.43673 0.067459C3.46393 0.0892135 3.48575 0.116353 3.50206 0.148985C3.51838 0.181617 3.52915 0.214217 3.52915 0.252287C3.53459 0.284919 3.52914 0.322958 3.51826 0.355589C3.50738 0.39366 3.49101 0.42081 3.46382 0.448003C3.44207 0.475197 3.41493 0.502591 3.38229 0.518907C3.34966 0.535223 3.31706 0.540556 3.27899 0.545994C2.71338 0.594942 2.16945 0.806974 1.71804 1.14961C1.2612 1.49768 0.918523 1.96553 0.722732 2.50395C0.526942 3.04238 0.489031 3.61891 0.614119 4.17909C0.733769 4.73383 1.01657 5.2449 1.41903 5.64736C1.82148 6.04982 2.33255 6.33262 2.88729 6.45227C3.44747 6.57736 4.02945 6.53944 4.56243 6.34365C5.10086 6.14786 5.56871 5.80506 5.91678 5.35365C6.25941 4.89681 6.47144 4.35301 6.52039 3.78739C6.52583 3.71669 6.55856 3.64607 6.61838 3.60257C6.67277 3.55362 6.7434 3.5318 6.8141 3.53724C6.8848 3.54268 6.95542 3.5754 6.99893 3.63523C7.04787 3.68962 7.06969 3.76024 7.06425 3.83095ZM3.25722 1.63372V3.53724C3.25722 3.60794 3.28436 3.6787 3.33874 3.72764C3.38769 3.78203 3.45845 3.80917 3.52915 3.80917H5.43267C5.50337 3.80917 5.57412 3.78203 5.62307 3.72764C5.67746 3.6787 5.7046 3.60794 5.7046 3.53724C5.7046 3.46654 5.67746 3.39578 5.62307 3.34683C5.57412 3.29245 5.50337 3.26531 5.43267 3.26531H3.80108V1.63372C3.80108 1.56302 3.77394 1.49226 3.71955 1.44331C3.67061 1.38893 3.59985 1.36179 3.52915 1.36179C3.45845 1.36179 3.38769 1.38893 3.33874 1.44331C3.28436 1.49226 3.25722 1.56302 3.25722 1.63372ZM4.61687 0.817926C4.69845 0.817926 4.77455 0.796235 4.84525 0.747287C4.91052 0.703778 4.96491 0.638472 4.99211 0.56777C5.02474 0.491629 5.03577 0.410082 5.01946 0.328502C5.00314 0.252362 4.96483 0.176285 4.905 0.121898C4.85062 0.0675121 4.77454 0.0237588 4.6984 0.00744288C4.61682 -0.00343437 4.53527 0.00216359 4.45913 0.0347953C4.38843 0.0619885 4.32312 0.116385 4.27961 0.181649C4.23067 0.252351 4.20898 0.328449 4.20898 0.410029C4.20898 0.518801 4.2526 0.622018 4.32874 0.698159C4.40488 0.7743 4.5081 0.817926 4.61687 0.817926ZM5.84056 1.63372C5.92214 1.63372 5.99824 1.61203 6.06894 1.56308C6.13421 1.51957 6.1886 1.45427 6.2158 1.38356C6.24843 1.30742 6.25947 1.22588 6.24315 1.1443C6.22683 1.06816 6.18852 0.992078 6.12869 0.937692C6.07431 0.883306 5.99823 0.839553 5.92209 0.823237C5.84051 0.812359 5.75896 0.817957 5.68282 0.850589C5.61212 0.877782 5.54681 0.932179 5.5033 0.997443C5.45436 1.06814 5.43267 1.14424 5.43267 1.22582C5.43267 1.33459 5.47629 1.43781 5.55243 1.51395C5.62857 1.59009 5.73179 1.63372 5.84056 1.63372ZM6.65636 2.85741C6.73794 2.85741 6.81403 2.83572 6.88474 2.78677C6.95 2.74326 7.0044 2.67796 7.03159 2.60725C7.06422 2.53111 7.07526 2.44957 7.05894 2.36799C7.04263 2.29185 7.00431 2.21577 6.94449 2.16138C6.8901 2.107 6.81402 2.06324 6.73788 2.04693C6.6563 2.03605 6.57476 2.04165 6.49862 2.07428C6.42791 2.10147 6.36261 2.15587 6.3191 2.22113C6.27015 2.29184 6.24846 2.36793 6.24846 2.44951C6.24846 2.55829 6.29209 2.6615 6.36823 2.73764C6.44437 2.81378 6.54759 2.85741 6.65636 2.85741Z" fill="black"/>
</svg>
